<?xml version="1.0" encoding="utf-8"?>
<!-- Generator: Adobe Illustrator 16.0.0, SVG Export Plug-In . SVG Version: 6.00 Build 0)  -->
<!DOCTYPE svg PUBLIC "-//W3C//DTD SVG 1.1//EN" "http://www.w3.org/Graphics/SVG/1.1/DTD/svg11.dtd">
<svg version="1.1" id="Layer_1" xmlns="http://www.w3.org/2000/svg" xmlns:xlink="http://www.w3.org/1999/xlink" x="0px" y="0px"
	 width="31.958px" height="32.005px" viewBox="0 -3.984 31.958 32.005" enable-background="new 0 -3.984 31.958 32.005"
	 xml:space="preserve">
<path fill-rule="evenodd" clip-rule="evenodd" fill="#757575" d="M26,10.016v8l-6-2v-6h-6v3H8v-4H7H3l13.875-13L31,9.016h-5V10.016z
	 M24.759,20.996c1.896,0,4.137,0.661,7.24-1.132c-0.775,2.17-5.947,3.491-7.24,3.396c-3.102-0.227-10.604-5.567-14.483-5.661
	C6.396,17.505,4.845,18.26,2,19.864c1.724-2.171,5.086-4.436,8.276-4.529C13.465,15.24,22.863,20.996,24.759,20.996z M22.759,25.752
	c1.896,0,4.137,0.66,7.24-1.132c-0.775,2.17-5.947,3.491-7.24,3.396c-3.102-0.227-10.604-5.567-14.483-5.661
	C4.396,22.26,2.845,23.015,0,24.62c1.724-2.171,5.086-4.436,8.276-4.529C11.465,19.996,20.863,25.752,22.759,25.752z"/>
</svg>
