<?xml version="1.0" encoding="utf-8"?>
<!-- Generator: Adobe Illustrator 16.0.0, SVG Export Plug-In . SVG Version: 6.00 Build 0)  -->
<!DOCTYPE svg PUBLIC "-//W3C//DTD SVG 1.1//EN" "http://www.w3.org/Graphics/SVG/1.1/DTD/svg11.dtd">
<svg version="1.1" id="Layer_1" xmlns="http://www.w3.org/2000/svg" xmlns:xlink="http://www.w3.org/1999/xlink" x="0px" y="0px"
	 width="31.083px" height="32.167px" viewBox="0 0 31.083 32.167" enable-background="new 0 0 31.083 32.167" xml:space="preserve">
<path fill="#757575" d="M20.678,15.922c0,2.923-2.322,5.307-5.169,5.307s-5.169-2.384-5.169-5.307s2.322-5.308,5.169-5.308
	S20.678,12.999,20.678,15.922z M31.017,13.662c0-0.353-0.243-0.685-0.586-0.746l-3.695-0.581c-0.202-0.684-0.484-1.368-0.828-2.031
	c0.687-0.975,1.434-1.887,2.12-2.84c0.101-0.146,0.162-0.291,0.162-0.478c0-0.166-0.041-0.331-0.142-0.456
	c-0.848-1.223-2.262-2.508-3.332-3.524c-0.142-0.124-0.323-0.207-0.505-0.207c-0.182,0-0.364,0.063-0.485,0.187L20.86,5.204
	c-0.586-0.312-1.191-0.561-1.817-0.768l-0.565-3.814C18.437,0.27,18.113,0,17.75,0h-4.483c-0.364,0-0.646,0.249-0.727,0.581
	c-0.323,1.243-0.444,2.591-0.585,3.855c-0.626,0.207-1.252,0.477-1.838,0.788L7.33,3.006C7.168,2.882,6.987,2.799,6.805,2.799
	c-0.687,0-3.413,3.026-3.897,3.711C2.807,6.655,2.726,6.8,2.726,6.986s0.081,0.353,0.202,0.498c0.747,0.933,1.474,1.865,2.161,2.86
	c-0.323,0.622-0.586,1.244-0.788,1.907l-3.756,0.581C0.242,12.895,0,13.269,0,13.579v4.603c0,0.353,0.242,0.684,0.585,0.746
	l3.695,0.56c0.202,0.705,0.485,1.389,0.828,2.053c-0.687,0.975-1.434,1.887-2.12,2.84c-0.101,0.146-0.162,0.29-0.162,0.477
	c0,0.166,0.04,0.332,0.141,0.478c0.848,1.202,2.262,2.487,3.332,3.482c0.142,0.146,0.323,0.228,0.505,0.228s0.363-0.062,0.505-0.187
	l2.847-2.218c0.585,0.311,1.191,0.56,1.817,0.767l0.565,3.814c0.041,0.353,0.363,0.622,0.727,0.622h4.483
	c0.363,0,0.646-0.248,0.727-0.58c0.323-1.244,0.444-2.592,0.585-3.856c0.626-0.207,1.252-0.477,1.837-0.787l2.787,2.238
	c0.162,0.104,0.343,0.187,0.525,0.187c0.687,0,3.413-3.047,3.897-3.71c0.121-0.146,0.182-0.291,0.182-0.478
	s-0.081-0.373-0.202-0.518c-0.747-0.934-1.474-1.846-2.161-2.861c0.323-0.602,0.565-1.223,0.788-1.887l3.736-0.58
	c0.323-0.063,0.565-0.436,0.565-0.746V13.662z"/>
</svg>
