<?xml version="1.0" encoding="utf-8"?>
<!-- Generator: Adobe Illustrator 16.0.0, SVG Export Plug-In . SVG Version: 6.00 Build 0)  -->
<!DOCTYPE svg PUBLIC "-//W3C//DTD SVG 1.1//EN" "http://www.w3.org/Graphics/SVG/1.1/DTD/svg11.dtd">
<svg version="1.1" id="Layer_1" xmlns="http://www.w3.org/2000/svg" xmlns:xlink="http://www.w3.org/1999/xlink" x="0px" y="0px"
	 width="33.167px" height="28.021px" viewBox="0 0 33.167 28.021" enable-background="new 0 0 33.167 28.021" xml:space="preserve">
<path fill="#757575" d="M23.061,10.297c-1.613,0.923-3.038,3.549-3.172,5.369c2.354-1.587,5.838-3.216,11.273-3.472
	c-3.948,0.768-10.322,3.458-10.817,4.413l-0.457-0.934c0-0.002,0.001-0.005,0.001-0.007c-0.003,0.001-0.003,0.002-0.004,0.002
	c-0.433,0.3-0.562,0.465-0.843,0.74c-0.987,0.962-1.782,2.209-2.38,3.564c-0.344-2.282-0.838-4.29-1.611-6.141
	c2.237-5.036,0.287-8.983-2.143-10.817C10.477,1.178,7.01-1.293,0.037,1.528c0.512,5.127,2.019,9.011,3.846,11.026
	c2.844,3.134,6.325,3.094,10.182,2.015c1.231,3.829,1.059,9.274,0.485,13.061c0,0,1.437,0.977,2.463-0.155
	c0.271-1.134,0.177-3.017,0.018-4.617c0.258-1.477,0.591-3.03,1.267-4.098c0.525-0.831,1.247-1.499,2.039-2.147
	c1.596,1.338,4.109,2.101,6.263,1.685c3.184-0.614,5.333-2.922,6.568-7.077C29.013,8.708,26.292,8.451,23.061,10.297z M3.063,3.22
	c7.692,3.282,11.437,8.975,11.949,10.515c-0.036,0.074-0.501,0.494-0.757,0.724c-0.064,0.041-0.129,0.078-0.188,0.108
	C12.418,11.644,9.038,7.407,3.063,3.22z"/>
</svg>
