<?xml version="1.0" encoding="utf-8"?>
<!-- Generator: Adobe Illustrator 16.0.0, SVG Export Plug-In . SVG Version: 6.00 Build 0)  -->
<!DOCTYPE svg PUBLIC "-//W3C//DTD SVG 1.1//EN" "http://www.w3.org/Graphics/SVG/1.1/DTD/svg11.dtd">
<svg version="1.1" id="Capa_1" xmlns="http://www.w3.org/2000/svg" xmlns:xlink="http://www.w3.org/1999/xlink" x="0px" y="0px"
	 width="32px" height="32px" viewBox="0 384 32 32" enable-background="new 0 384 32 32" xml:space="preserve">
<g>
	<g>
		<path fill="#757575" d="M0,414.929v-14.972c0-0.597,0.486-1.083,1.083-1.083h6.202c0.597,0,1.083,0.486,1.083,1.083v14.972
			c0,0.597-0.486,1.082-1.083,1.082H1.089C0.486,416.018,0,415.532,0,414.929z M30.878,391.919c0.596,0,1.083,0.487,1.083,1.083
			v21.927c0,0.597-0.486,1.083-1.083,1.083h-6.203c-0.596,0-1.082-0.486-1.082-1.083v-21.927c0-0.596,0.486-1.083,1.082-1.083
			H30.878z M29.724,394.163h-3.889v19.606h3.889V394.163z M20.17,385.231v29.705c0,0.597-0.486,1.082-1.083,1.082h-6.203
			c-0.596,0-1.083-0.485-1.083-1.082v-29.705c0-0.596,0.486-1.082,1.083-1.082h6.203C19.684,384.142,20.17,384.629,20.17,385.231z
			 M14.039,389.094l2.709-2.709h-2.709V389.094z M17.928,411.054l-2.723,2.722h2.723V411.054z M17.928,405.33l-3.889,3.888v2.769
			l3.889-3.89V405.33z M17.928,399.607l-3.889,3.889v2.768l3.889-3.889V399.607z M17.928,393.884l-3.889,3.888v2.768l3.889-3.889
			V393.884z M17.928,388.161l-3.889,3.888v2.768l3.889-3.889V388.161z"/>
	</g>
</g>
</svg>
