<?xml version="1.0" encoding="utf-8"?>
<!-- Generator: Adobe Illustrator 16.0.0, SVG Export Plug-In . SVG Version: 6.00 Build 0)  -->
<!DOCTYPE svg PUBLIC "-//W3C//DTD SVG 1.1//EN" "http://www.w3.org/Graphics/SVG/1.1/DTD/svg11.dtd">
<svg version="1.1" id="Layer_1" xmlns="http://www.w3.org/2000/svg" xmlns:xlink="http://www.w3.org/1999/xlink" x="0px" y="0px"
	 width="33.167px" height="34px" viewBox="0 -4.24 33.167 34" enable-background="new 0 -4.24 33.167 34" xml:space="preserve">
<g>
	<ellipse fill="#757575" cx="21.699" cy="16.961" rx="0.882" ry="0.728"/>
	<ellipse fill="#757575" cx="25.639" cy="25.01" rx="0.882" ry="0.728"/>
	<ellipse fill="#757575" cx="25.262" cy="19.95" rx="1.379" ry="1.226"/>
	<ellipse fill="#757575" cx="30.387" cy="14.387" rx="1.379" ry="1.226"/>
	<path fill="#757575" d="M14.8,18.999l-1.778,0.94l-3.556-4.052c-0.594,0.202-1.241,0.316-1.917,0.316
		c-0.691,0-1.349-0.116-1.956-0.325l-3.756,3.703c2.561,5.891,8.425,10.013,15.257,10.013c2.782,0,5.399-0.691,7.704-1.899
		c-0.302-0.308-0.681-0.63-1.156-0.967C18.011,22.732,14.8,18.999,14.8,18.999z"/>
	<circle fill="#757575" cx="25.263" cy="16.501" r="0.382"/>
	<circle fill="#757575" cx="26.577" cy="21.698" r="0.382"/>
	<circle fill="#757575" cx="27.21" cy="20.395" r="0.382"/>
	<circle fill="#757575" cx="31.528" cy="11.573" r="0.382"/>
	<path fill="#757575" d="M29.939,3.24c0-0.35-0.053-0.686-0.141-1.009c-2.354-2.784-5.6-4.788-9.303-5.558
		c-0.405,0.351-0.745,0.77-0.99,1.244c-0.432-0.14-0.887-0.233-1.37-0.233c-0.233,0-0.458,0.032-0.684,0.066
		c-0.087-0.511-0.276-0.988-0.542-1.417c-2.894,0.032-5.606,0.803-7.966,2.133c0.003,0.02,0.006,0.041,0.007,0.062L8.857-1.483
		C7.64-0.786,6.519,0.055,5.519,1.025l1.656,14.066l1.276-6.843l0.195,6.731l1.566-9.257c0.594,0.737,1.44,1.28,2.42,1.5
		c0.028,0.756,0.34,1.458,0.863,2.057c-0.01,0.108-0.035,0.212-0.035,0.322c0,2.054,1.785,3.718,3.988,3.718
		c0.991,0,1.89-0.352,2.587-0.911c0.751,1.011,1.994,1.678,3.409,1.678c2.295,0,4.156-1.751,4.156-3.909
		c0-1.151-0.539-2.176-1.381-2.891C28.315,7.015,29.939,5.318,29.939,3.24z"/>
</g>
</svg>
